<svg width="1137" height="241" viewBox="0 0 1137 241" fill="none" xmlns="http://www.w3.org/2000/svg">
<path fill-rule="evenodd" clip-rule="evenodd" d="M127.692 193.674C117.515 193.674 110.624 203.194 86.0021 203.194C59.0862 203.194 44.3154 189.08 44.3154 156.91C44.3154 125.726 56.4606 111.609 79.1112 111.609C93.2248 111.609 100.447 118.174 106.684 130.648C109.967 137.214 114.89 140.168 123.752 140.168C135.243 140.168 143.777 132.945 143.777 121.786C143.777 116.206 142.466 111.609 140.494 107.669C131.96 87.6439 110.953 75.1702 79.1112 75.1702C28.8844 75.1702 0 107.669 0 158.221C0 211.399 31.1845 239.958 81.4082 239.958C106.027 239.958 122.441 235.035 133.272 229.127C139.837 225.844 145.091 221.576 145.091 211.399C145.091 202.865 139.512 193.674 127.692 193.674" fill="#006FC1"/>
<path fill-rule="evenodd" clip-rule="evenodd" d="M176.613 0C163.482 0 154.62 9.19104 154.62 20.0219V219.934C154.62 230.768 163.482 239.959 176.613 239.959C189.744 239.959 198.278 230.768 198.278 219.934V20.0219C198.278 9.19104 189.744 0 176.613 0" fill="#006FC1"/>
<path fill-rule="evenodd" clip-rule="evenodd" d="M251.46 1.96948C236.032 1.96948 225.198 12.4749 225.198 28.2314C225.198 44.3165 236.032 55.1473 251.46 55.1473C267.545 55.1473 277.722 44.3165 277.722 28.2314C277.722 12.4749 267.545 1.96948 251.46 1.96948" fill="#006FC1"/>
<path fill-rule="evenodd" clip-rule="evenodd" d="M249.491 75.4995C236.36 75.4995 227.498 84.6906 227.498 95.5245V219.934C227.498 230.768 236.36 239.959 249.491 239.959C262.622 239.959 271.156 230.768 271.156 219.934V95.5245C271.156 84.6906 262.622 75.4995 249.491 75.4995" fill="#006FC1"/>
<path fill-rule="evenodd" clip-rule="evenodd" d="M435.545 188.084C443.639 188.084 450.899 191.571 455.967 197.104V137.212C455.967 98.8051 437.582 75.1719 396.552 75.1719C370.619 75.1719 352.237 85.6742 340.749 101.759L339.763 93.2254C338.452 83.0486 332.869 75.5005 321.052 75.5005C310.218 75.5005 301.684 83.7058 301.684 93.554V219.935C301.684 230.769 310.547 239.957 323.678 239.957C336.809 239.957 345.343 230.769 345.343 219.935V149.029C345.343 129.007 360.442 113.25 381.453 113.25C402.46 113.25 412.309 123.427 412.309 145.417V200.713C417.256 193.118 425.805 188.084 435.545 188.084" fill="#006FC1"/>
<path fill-rule="evenodd" clip-rule="evenodd" d="M504.883 75.4995C491.752 75.4995 482.887 84.6906 482.887 95.5245V219.934C482.887 230.768 491.752 239.959 504.883 239.959C518.011 239.959 526.548 230.768 526.548 219.934V95.5245C526.548 84.6906 518.011 75.4995 504.883 75.4995" fill="#006FC1"/>
<path fill-rule="evenodd" clip-rule="evenodd" d="M506.851 1.96948C491.423 1.96948 480.589 12.4749 480.589 28.2314C480.589 44.3165 491.423 55.1473 506.851 55.1473C522.936 55.1473 533.113 44.3165 533.113 28.2314C533.113 12.4749 522.936 1.96948 506.851 1.96948" fill="#006FC1"/>
<path fill-rule="evenodd" clip-rule="evenodd" d="M631.268 203.521C605.992 203.521 593.19 187.11 593.19 157.894C593.19 128.678 605.992 111.607 631.268 111.607C656.216 111.607 669.344 128.678 669.344 157.894C669.344 187.11 656.216 203.521 631.268 203.521M631.268 75.1719C580.713 75.1719 548.546 103.074 548.546 157.566C548.546 211.726 580.713 239.957 631.268 239.957C681.821 239.957 713.991 211.726 713.991 157.894C713.991 103.731 681.821 75.1719 631.268 75.1719" fill="#006FC1"/>
<mask id="mask0_101_905" style="mask-type:luminance" maskUnits="userSpaceOnUse" x="411" y="191" width="49" height="50">
<path fill-rule="evenodd" clip-rule="evenodd" d="M411.191 191.456H459.899V240.163H411.191V191.456Z" fill="white"/>
</mask>
<g mask="url(#mask0_101_905)">
<path fill-rule="evenodd" clip-rule="evenodd" d="M459.899 215.808C459.899 229.259 448.994 240.164 435.547 240.164C422.096 240.164 411.191 229.259 411.191 215.808C411.191 202.358 422.096 191.456 435.547 191.456C448.994 191.456 459.899 202.358 459.899 215.808" fill="#FFB12E"/>
</g>
<rect x="744" width="393" height="240" rx="30" fill="#FFB12E"/>
<path d="M802.091 77.3054C799.376 77.3054 797.016 76.3613 795.01 74.473C793.003 72.4667 792 70.1063 792 67.3919V66.8608C792 64.1464 793.003 61.786 795.01 59.7797C797.016 57.7734 799.376 56.7703 802.091 56.7703H877.508C880.222 56.7703 882.583 57.7734 884.589 59.7797C886.596 61.786 887.599 64.1464 887.599 66.8608V67.3919C887.599 70.1063 886.596 72.4667 884.589 74.473C882.583 76.3613 880.222 77.3054 877.508 77.3054H853.785C852.841 77.3054 852.369 77.8365 852.369 78.8986V175.909C852.369 178.624 851.366 180.984 849.359 182.991C847.353 184.997 844.992 186 842.278 186H837.321C834.606 186 832.246 184.997 830.24 182.991C828.233 180.984 827.23 178.624 827.23 175.909V78.8986C827.23 77.8365 826.758 77.3054 825.814 77.3054H802.091Z" fill="white"/>
<path d="M925.916 76.9513V119.615C925.916 120.441 926.388 120.972 927.332 121.208C931.817 121.798 936.184 122.093 940.433 122.093C949.993 122.093 957.251 120.028 962.208 115.897C967.283 111.649 969.821 105.63 969.821 97.8405C969.821 82.1441 960.025 74.2959 940.433 74.2959C936.184 74.2959 931.817 74.591 927.332 75.1811C926.388 75.4171 925.916 76.0072 925.916 76.9513ZM911.399 186C908.685 186 906.324 184.997 904.318 182.991C902.429 180.984 901.485 178.624 901.485 175.909V67.7459C901.485 64.9135 902.429 62.3761 904.318 60.1338C906.206 57.8914 908.567 56.6522 911.399 56.4162C921.431 55.4721 931.109 55 940.433 55C958.136 55 971.414 58.5405 980.266 65.6216C989.117 72.5847 993.543 82.7342 993.543 96.0703C993.543 110.823 989.236 121.975 980.62 129.528C972.122 137.082 959.494 140.858 942.734 140.858C938.84 140.858 933.706 140.622 927.332 140.15C926.388 140.15 925.916 140.622 925.916 141.566V175.909C925.916 178.624 924.913 180.984 922.906 182.991C920.9 184.997 918.54 186 915.825 186H911.399Z" fill="white"/>
<path d="M1034.9 78.7216L1019.32 134.308C1019.2 134.662 1019.26 135.016 1019.5 135.37C1019.74 135.724 1020.03 135.901 1020.38 135.901H1049.77C1050.13 135.901 1050.42 135.724 1050.66 135.37C1050.89 135.016 1050.95 134.662 1050.83 134.308L1035.26 78.7216C1035.26 78.6036 1035.2 78.5446 1035.08 78.5446C1034.96 78.5446 1034.9 78.6036 1034.9 78.7216ZM989.05 186C986.571 186 984.624 184.997 983.208 182.991C981.791 180.984 981.496 178.801 982.322 176.441L1018.97 66.3297C1020.03 63.4973 1021.74 61.1959 1024.1 59.4257C1026.58 57.6554 1029.3 56.7703 1032.25 56.7703H1038.62C1041.69 56.7703 1044.4 57.6554 1046.76 59.4257C1049.24 61.1959 1050.95 63.4973 1051.9 66.3297L1088.54 176.441C1089.37 178.801 1089.07 180.984 1087.66 182.991C1086.24 184.997 1084.29 186 1081.82 186H1075.44C1072.61 186 1069.95 185.115 1067.48 183.345C1065.12 181.456 1063.52 179.096 1062.7 176.264L1057.03 156.259C1056.91 155.315 1056.26 154.843 1055.08 154.843H1015.07C1014.01 154.843 1013.36 155.315 1013.13 156.259L1007.46 176.264C1006.75 179.096 1005.16 181.456 1002.68 183.345C1000.32 185.115 997.665 186 994.715 186H989.05Z" fill="white"/>
<rect x="744" width="393" height="240" rx="30" fill="#FFB12E"/>
<path d="M802.091 77.3054C799.376 77.3054 797.016 76.3613 795.01 74.473C793.003 72.4667 792 70.1063 792 67.3919V66.8608C792 64.1464 793.003 61.786 795.01 59.7797C797.016 57.7734 799.376 56.7703 802.091 56.7703H877.508C880.222 56.7703 882.583 57.7734 884.589 59.7797C886.596 61.786 887.599 64.1464 887.599 66.8608V67.3919C887.599 70.1063 886.596 72.4667 884.589 74.473C882.583 76.3613 880.222 77.3054 877.508 77.3054H853.785C852.841 77.3054 852.369 77.8365 852.369 78.8986V175.909C852.369 178.624 851.366 180.984 849.359 182.991C847.353 184.997 844.992 186 842.278 186H837.321C834.606 186 832.246 184.997 830.24 182.991C828.233 180.984 827.23 178.624 827.23 175.909V78.8986C827.23 77.8365 826.758 77.3054 825.814 77.3054H802.091Z" fill="white"/>
<path d="M925.916 76.9513V119.615C925.916 120.441 926.388 120.972 927.332 121.208C931.817 121.798 936.184 122.093 940.433 122.093C949.993 122.093 957.251 120.028 962.208 115.897C967.283 111.649 969.821 105.63 969.821 97.8405C969.821 82.1441 960.025 74.2959 940.433 74.2959C936.184 74.2959 931.817 74.591 927.332 75.1811C926.388 75.4171 925.916 76.0072 925.916 76.9513ZM911.399 186C908.685 186 906.324 184.997 904.318 182.991C902.429 180.984 901.485 178.624 901.485 175.909V67.7459C901.485 64.9135 902.429 62.3761 904.318 60.1338C906.206 57.8914 908.567 56.6522 911.399 56.4162C921.431 55.4721 931.109 55 940.433 55C958.136 55 971.414 58.5405 980.266 65.6216C989.117 72.5847 993.543 82.7342 993.543 96.0703C993.543 110.823 989.236 121.975 980.62 129.528C972.122 137.082 959.494 140.858 942.734 140.858C938.84 140.858 933.706 140.622 927.332 140.15C926.388 140.15 925.916 140.622 925.916 141.566V175.909C925.916 178.624 924.913 180.984 922.906 182.991C920.9 184.997 918.54 186 915.825 186H911.399Z" fill="white"/>
<path d="M1034.9 78.7216L1019.32 134.308C1019.2 134.662 1019.26 135.016 1019.5 135.37C1019.74 135.724 1020.03 135.901 1020.38 135.901H1049.77C1050.13 135.901 1050.42 135.724 1050.66 135.37C1050.89 135.016 1050.95 134.662 1050.83 134.308L1035.26 78.7216C1035.26 78.6036 1035.2 78.5446 1035.08 78.5446C1034.96 78.5446 1034.9 78.6036 1034.9 78.7216ZM989.05 186C986.571 186 984.624 184.997 983.208 182.991C981.791 180.984 981.496 178.801 982.322 176.441L1018.97 66.3297C1020.03 63.4973 1021.74 61.1959 1024.1 59.4257C1026.58 57.6554 1029.3 56.7703 1032.25 56.7703H1038.62C1041.69 56.7703 1044.4 57.6554 1046.76 59.4257C1049.24 61.1959 1050.95 63.4973 1051.9 66.3297L1088.54 176.441C1089.37 178.801 1089.07 180.984 1087.66 182.991C1086.24 184.997 1084.29 186 1081.82 186H1075.44C1072.61 186 1069.95 185.115 1067.48 183.345C1065.12 181.456 1063.52 179.096 1062.7 176.264L1057.03 156.259C1056.91 155.315 1056.26 154.843 1055.08 154.843H1015.07C1014.01 154.843 1013.36 155.315 1013.13 156.259L1007.46 176.264C1006.75 179.096 1005.16 181.456 1002.68 183.345C1000.32 185.115 997.665 186 994.715 186H989.05Z" fill="white"/>
</svg>
