<svg xmlns="http://www.w3.org/2000/svg" width="4.84cm" height="58.658">
    <path fill="#006FBB" fill-rule="evenodd" d="M134.401 11.052c1.946 1.587 3.126 2.591 3.538 3.012.9.84 1.642 1.828 2.192 2.918.433.954.65 1.987.638 3.03 0 2.14-.758 3.909-2.274 5.305-1.515 1.396-3.49 2.094-5.925 2.094a8.959 8.959 0 0 1-4.97-1.358c-1.412-.917-2.621-2.351-3.627-4.302l4.282-2.516c1.286 2.305 2.765 3.458 4.438 3.458a3.311 3.311 0 0 0 2.199-.745c.552-.41.88-1.044.892-1.721a2.932 2.932 0 0 0-.672-1.773c-.451-.593-1.44-1.499-2.966-2.717-2.909-2.319-4.788-4.107-5.638-5.366-.849-1.259-1.274-2.516-1.274-3.77a6.105 6.105 0 0 1 2.118-4.657c1.412-1.296 3.154-1.943 5.227-1.943a8.374 8.374 0 0 1 3.808.906c1.206.603 2.512 1.703 3.918 3.298l-3.765 3.247c-1.321-1.797-2.668-2.696-4.039-2.696a2.492 2.492 0 0 0-1.634.52 1.518 1.518 0 0 0-.637 1.18c.008.453.172.891.463 1.243.406.522 1.642 1.64 3.708 3.353zm-18.237 15.703h-5.121V15.454L103.19.658h5.459l4.98 9.387L118.59.658h5.383l-7.809 14.796v11.301zM95.733 11.052c1.94 1.585 3.116 2.585 3.529 3a10.422 10.422 0 0 1 2.192 2.93 7.13 7.13 0 0 1 .644 3.03c.002 2.14-.755 3.909-2.271 5.305-1.515 1.396-3.49 2.094-5.925 2.094a8.963 8.963 0 0 1-4.973-1.358c-1.41-.917-2.618-2.351-3.624-4.302l4.273-2.516c1.285 2.305 2.765 3.458 4.438 3.458a3.311 3.311 0 0 0 2.199-.745c.55-.411.879-1.044.892-1.721a2.925 2.925 0 0 0-.674-1.773c-.45-.593-1.438-1.499-2.964-2.717-2.909-2.319-4.788-4.107-5.638-5.366-.85-1.259-1.275-2.516-1.275-3.77a6.112 6.112 0 0 1 2.118-4.657C90.085.648 91.827.001 93.902.001a8.37 8.37 0 0 1 3.807.906c1.207.603 2.513 1.703 3.919 3.298l-3.766 3.247c-1.322-1.797-2.668-2.696-4.039-2.696a2.488 2.488 0 0 0-1.654.52 1.518 1.518 0 0 0-.637 1.18c.007.454.17.891.463 1.243.419.522 1.665 1.64 3.738 3.353zM85.648 26.755h-5.721l-6.146-9.175-6.154 9.175h-5.756l9.037-13.457L62.443.658h5.719l5.615 8.377L79.401.658h5.712L76.639 13.31l9.009 13.445zM46.716.658h14.58v4.861h-9.531v4.718h9.531v4.773h-9.531v6.865h9.531v4.88h-14.58V.658zM22.137 36.081l-10.678 7.845H0V32.741L8.029 22.31 0 11.877V.68h11.491l10.646 7.823L32.78.68h11.48v11.228L36.254 22.31l8.006 10.399v11.217H32.812l-10.675-7.845zM40.48 10.643H6.806l4.746 4.754h24.062l4.866-4.754zM24.795 24.681l4.866-4.755H18.77v-2.264h-5.793v16.302h21.052l-4.709-4.755H18.77v-4.528h6.025zm26.56 16.802c.427.013.843-.128 1.17-.396.287-.218.457-.551.464-.906a1.565 1.565 0 0 0-.357-.944 10.37 10.37 0 0 0-1.576-1.442c-1.545-1.23-2.543-2.181-2.996-2.851a3.566 3.566 0 0 1-.677-2.004 3.244 3.244 0 0 1 1.127-2.474 3.95 3.95 0 0 1 2.78-1.031 4.447 4.447 0 0 1 2.023.48c.644.32 1.337.906 2.086 1.753l-2.002 1.725c-.7-.955-1.415-1.433-2.146-1.433a1.322 1.322 0 0 0-.869.278.807.807 0 0 0-.338.628c0 .238.081.47.231.659.221.282.882.876 1.982 1.781 1.031.838 1.656 1.366 1.874 1.585.479.447.873.972 1.166 1.551.232.509.349 1.06.343 1.617a3.665 3.665 0 0 1-1.208 2.817c-.804.742-1.854 1.114-3.149 1.114a4.766 4.766 0 0 1-2.641-.727c-.751-.483-1.393-1.243-1.926-2.28l2.282-1.338c.685 1.225 1.47 1.838 2.357 1.838zM63.928 29.42v.015a7.138 7.138 0 0 1 5.18 2.122 7.012 7.012 0 0 1 2.166 5.194 6.916 6.916 0 0 1-2.139 5.137 7.12 7.12 0 0 1-5.188 2.099c-2.13 0-3.9-.72-5.309-2.16-2.323-2.362-2.783-5.934-1.131-8.785 1.325-2.241 3.773-3.622 6.421-3.622zm-2.984 10.97a4.708 4.708 0 0 0 3.012 1.046 4.455 4.455 0 0 0 3.265-1.375v.025a4.812 4.812 0 0 0 0-6.697l-.051-.051c-1.82-1.769-4.763-1.762-6.574.017a4.614 4.614 0 0 0-1.344 3.396c.002 1.534.566 2.746 1.692 3.639zm14.599.733h3.939v2.518h-6.648V29.775h2.709v11.348zm7.612-2.382c0 .772.069 1.318.208 1.64.139.32.378.589.684.767a2.21 2.21 0 0 0 1.159.285c.433.011.86-.099 1.23-.319.322-.189.573-.475.714-.815.131-.328.197-.957.197-1.888l-.01-8.636h2.712v8.264c0 1.394-.078 2.361-.232 2.903a4.083 4.083 0 0 1-.927 1.565 4.243 4.243 0 0 1-1.566 1.116 5.43 5.43 0 0 1-2.065.364 5.095 5.095 0 0 1-2.688-.692 4.058 4.058 0 0 1-1.634-1.735c-.329-.687-.493-1.86-.493-3.521v-8.264h2.711v8.966zm15.488-6.362h-2.586v11.264h-2.739V32.379h-2.519v-2.604h7.844v2.604zm3.353 11.264h-2.681V29.775h2.681v13.868zm8.753-14.208a7.132 7.132 0 0 1 5.179 2.133 7.006 7.006 0 0 1 2.166 5.194 6.94 6.94 0 0 1-2.136 5.138 7.133 7.133 0 0 1-5.191 2.103c-2.13 0-3.9-.72-5.309-2.16-2.32-2.363-2.78-5.934-1.131-8.785 1.325-2.241 3.773-3.622 6.422-3.623zm-2.997 10.955a4.71 4.71 0 0 0 3.013 1.046 4.452 4.452 0 0 0 3.276-1.359l-.011.009a4.807 4.807 0 0 0 0-6.697l-.051-.051c-1.82-1.769-4.764-1.762-6.574.017a4.612 4.612 0 0 0-1.342 3.396c0 1.534.563 2.746 1.689 3.639zm20.575-1.49v-9.125h2.702v13.866h-2.6l-6.064-9.098v9.098h-2.702V29.775h2.593l6.071 9.125zm8.375 2.583c.423.01.834-.131 1.158-.396.287-.218.457-.551.464-.906a1.565 1.565 0 0 0-.357-.944 10.37 10.37 0 0 0-1.576-1.442c-1.545-1.23-2.543-2.181-2.996-2.851a3.574 3.574 0 0 1-.677-2.004 3.244 3.244 0 0 1 1.127-2.474 3.95 3.95 0 0 1 2.78-1.031 4.452 4.452 0 0 1 2.037.485c.644.319 1.337.906 2.086 1.752l-2.002 1.726c-.7-.956-1.415-1.434-2.146-1.434a1.317 1.317 0 0 0-.869.279.806.806 0 0 0-.338.627c0 .239.081.471.231.659.221.282.882.876 1.982 1.782 1.031.838 1.656 1.366 1.874 1.585.476.447.868.972 1.159 1.551v-.005a3.8 3.8 0 0 1 .359 1.619 3.664 3.664 0 0 1-1.207 2.817c-.804.743-1.853 1.114-3.149 1.114a4.761 4.761 0 0 1-2.642-.727c-.751-.483-1.393-1.243-1.926-2.28l2.271-1.34c.681 1.225 1.467 1.838 2.357 1.838z"/>
</svg>
